<svg width="20" height="20" viewBox="0 0 20 20" fill="none" xmlns="http://www.w3.org/2000/svg">
<path d="M19.5 10.2273C19.5 9.54545 19.4318 8.86364 19.3182 8.22727H10V11.9545H15.3409C15.1136 13.0682 14.4545 14.0227 13.4773 14.6591V17.1364H16.3636C18.25 15.3864 19.5 13.0227 19.5 10.2273Z" fill="#4285F4"/>
<path d="M10 20C12.9545 20 15.4545 19.0227 17.2727 17.1364L14.3864 14.6591C13.3864 15.3182 11.8636 15.7273 10 15.7273C7.02273 15.7273 4.52273 13.7727 3.63636 11.1818H0.659091V13.75C2.5 17.3864 5.95455 20 10 20Z" fill="#34A853"/>
<path d="M3.63636 11.1818C3.47727 10.7273 3.38636 10.2273 3.38636 9.72727C3.38636 9.22727 3.47727 8.72727 3.63636 8.27273V5.69091H0.659091C-0.227273 7.52273 -0.227273 11.9318 0.659091 13.75L3.63636 11.1818Z" fill="#FBBC05"/>
<path d="M10 3.72727C11.5909 3.72727 13.0455 4.31818 14.2045 5.38636L17.3409 2.25C15.4545 0.863636 12.9545 0 10 0C5.95455 0 2.5 2.61364 0.659091 6.25L3.63636 8.81818C4.52273 6.22727 7.02273 3.72727 10 3.72727Z" fill="#EA4335"/>
</svg>